<?xml version="1.0" standalone="no"?>
<!DOCTYPE svg PUBLIC "-//W3C//DTD SVG 20010904//EN"
 "http://www.w3.org/TR/2001/REC-SVG-20010904/DTD/svg10.dtd">
<svg version="1.0" xmlns="http://www.w3.org/2000/svg"
 width="700.000000pt" height="700.000000pt" viewBox="0 0 700.000000 700.000000"
 preserveAspectRatio="xMidYMid meet">
<metadata>
Created by potrace 1.14, written by Peter Selinger 2001-2017
</metadata>
<g transform="translate(0.000000,700.000000) scale(0.100000,-0.100000)"
fill="#000000" stroke="none">
<path d="M1712 5776 c-12 -6 -203 -192 -426 -413 -440 -437 -432 -427 -394
-501 13 -26 47 -56 114 -102 52 -36 119 -83 149 -105 29 -22 172 -124 317
-227 144 -103 412 -293 593 -422 182 -129 338 -241 349 -248 40 -28 61 -46 56
-51 -3 -2 -321 -215 -707 -471 -717 -476 -734 -489 -733 -548 1 -54 16 -67
217 -192 l141 -88 -37 -76 c-21 -43 -136 -273 -256 -512 -228 -455 -237 -481
-207 -543 18 -39 65 -65 107 -60 31 3 101 48 305 196 49 36 198 142 220 157
12 8 73 52 136 97 62 45 140 100 171 122 49 35 152 108 216 153 75 54 1256
897 1344 960 l113 79 107 -76 c126 -89 97 -68 738 -525 275 -196 561 -400 635
-453 74 -53 142 -101 150 -107 13 -9 506 -360 555 -396 207 -149 286 -202 311
-207 37 -7 88 14 107 45 8 12 17 43 20 67 4 41 -11 74 -249 551 -139 279 -254
512 -256 519 -2 7 14 22 34 34 56 33 155 95 230 145 56 36 70 50 80 83 24 82
48 62 -727 576 -387 258 -705 470 -705 473 0 7 26 26 545 395 237 168 440 314
452 323 13 9 146 105 297 212 151 107 280 204 285 215 39 73 21 101 -189 295
-19 18 -91 85 -160 150 -69 65 -141 132 -160 150 -19 18 -93 86 -163 153 -71
66 -140 131 -155 144 -33 28 -87 39 -122 26 -30 -11 -159 -104 -160 -115 0 -8
-11 2 260 -258 328 -315 345 -333 359 -370 7 -19 17 -44 22 -55 23 -54 69
-201 65 -210 -2 -6 -151 -117 -332 -246 -444 -318 -450 -322 -524 -373 -36
-25 -121 -86 -190 -135 -69 -50 -132 -95 -140 -101 -22 -15 -392 -279 -415
-296 -11 -8 -67 -48 -125 -89 -58 -41 -114 -81 -125 -89 -11 -8 -87 -62 -170
-121 -82 -58 -157 -112 -167 -120 -14 -12 -39 3 -207 123 -105 76 -308 220
-452 322 -143 102 -268 191 -277 198 -27 21 -421 301 -492 350 -36 25 -74 53
-86 63 -11 11 -25 19 -31 19 -6 0 -13 4 -15 8 -2 6 -603 439 -670 483 -10 6
65 218 101 286 11 21 148 164 306 318 l286 280 -28 23 c-126 104 -193 134
-241 108z"/>
<path d="M2140 5717 c-14 -7 -179 -166 -367 -353 l-341 -339 -41 -108 c-23
-59 -41 -114 -41 -121 0 -11 69 -64 243 -186 12 -8 215 -153 452 -322 236
-169 438 -313 448 -320 11 -7 41 -29 67 -48 26 -19 56 -41 67 -48 23 -16 181
-129 208 -148 11 -8 165 -118 343 -244 l323 -230 197 141 c108 77 332 237 497
354 165 118 309 221 320 229 11 8 117 84 235 167 118 84 220 157 225 162 6 4
22 16 37 25 21 13 544 387 621 444 15 11 17 19 8 38 -5 14 -26 70 -46 126
l-36 101 -181 174 c-99 96 -210 203 -247 238 -36 34 -104 100 -150 145 -78 76
-86 81 -125 80 -95 -3 -449 -184 -706 -362 -85 -58 -275 -207 -355 -277 -58
-51 -111 -98 -188 -169 l-79 -71 6 -275 c3 -151 8 -412 12 -580 3 -168 7 -325
8 -349 3 -36 -1 -49 -20 -68 -13 -13 -30 -23 -38 -23 -22 0 -55 48 -51 73 2
12 6 99 10 192 6 179 13 373 20 540 2 55 7 188 10 295 l7 196 -103 96 c-57 52
-116 106 -130 119 -15 13 -42 38 -60 54 -315 282 -698 534 -977 644 -62 25
-51 24 -82 8z"/>
</g>
</svg>
