<?xml version="1.0" encoding="UTF-8"?>
<!DOCTYPE svg PUBLIC "-//W3C//DTD SVG 1.1//EN" "http://www.w3.org/Graphics/SVG/1.1/DTD/svg11.dtd">
<!-- Creator: CorelDRAW -->
<svg xmlns="http://www.w3.org/2000/svg" xml:space="preserve" width="2048px" height="2048px" style="shape-rendering:geometricPrecision; text-rendering:geometricPrecision; image-rendering:optimizeQuality; fill-rule:evenodd; clip-rule:evenodd"
viewBox="0 0 2048 2048"
 xmlns:xlink="http://www.w3.org/1999/xlink">
 <defs>
  <style type="text/css">
   <![CDATA[
    .fil2 {fill:none}
    .fil1 {fill:#64B5F6}
    .fil0 {fill:#424242;fill-rule:nonzero}
   ]]>
  </style>
 </defs>
 <g id="Layer_x0020_1">
  <metadata id="CorelCorpID_0Corel-Layer"/>
  <path class="fil0" d="M259.499 1637.75c-3.00236,6.00473 -3.92835,12.5032 -3.05433,18.6839 -1.18701,7.88977 0.563386,16.2319 5.55355,23.2465 10.2165,14.3587 30.1406,17.7165 44.4992,7.50001l717.501 -511.689 717.501 511.689c14.3587,10.2165 34.2827,6.85867 44.4992,-7.50001 5.03859,-7.08071 6.77363,-15.515 5.51811,-23.4709 0.820867,-6.11221 -0.120473,-12.528 -3.08622,-18.4595l-147.002 -294.004 89.7851 -56.0776 -16.8756 -27.1252 16.9524 27.1418c14.9894,-9.36142 19.5508,-29.1047 10.1894,-44.0941 -2.91142,-4.66063 -6.8256,-8.3126 -11.2902,-10.852l-407.057 -270.577 453.454 -323.383c0.390945,-0.237402 0.779528,-0.48189 1.16339,-0.73819 13.591,-9.06142 18.0142,-26.7201 10.865,-40.9536l-0.297638 -0.579922 -0.0188977 -0.0366142c-1.61693,-3.07205 -3.76418,-5.93268 -6.43938,-8.44016l-0.0531496 0.056693 -237.181 -222.339c-6.34725,-5.97166 -14.4933,-8.8382 -22.5685,-8.66221 -7.69961,-0.712205 -15.6768,1.35118 -22.3075,6.41339l-38.8677 29.6114 46.5851 44.7803 11.4543 -8.72599 190.833 178.89 -190.833 -178.89 -11.4543 8.72717 124.497 119.676c4.1315,3.97205 7.59804,8.14607 10.0039,13.4067 9.87639,21.5941 16.0996,45.5422 24.4996,67.9501l43.2874 -30.8705 -43.2874 30.8705c0.473622,1.26496 0.955513,2.52638 1.44449,3.78071l4.52481 11.6043 -10.1421 7.23308 -384.162 273.971 -0.0011811 0 -8.96575 6.39567 -9.82796 7.00867 -9.82796 7.00985 -8.32087 5.93386 -207.9 148.269 -9.28938 6.62481 -9.28938 -6.62481 -210.535 -150.143 -6.29528 -4.48937 -9.85631 -7.02993 -9.85631 -7.02875 -7.07835 -5.04804 -387.157 -276.104 -10.1421 -7.23308 4.52481 -11.6055 1.46221 -3.77481 -42.5079 -30.3154 42.5079 30.3142c8.38229,-21.7713 16.076,-43.9252 25.5945,-65.2146 2.21811,-4.96181 5.00433,-9.45591 8.89016,-13.2992l165.278 -163.443 -42.287 -32.217c-2.04095,-1.55788 -4.20945,-2.82992 -6.45945,-3.82677 -12.2764,-7.60985 -28.604,-6.11575 -39.2918,4.513l-224.193 222.721c-3.72284,3.16299 -6.76654,7.2189 -8.76733,12.0024 -5.75197,13.5154 -1.57323,29.6811 10.8791,38.5607l0.080315 -0.0543308 455.334 324.723 -407.092 270.6c-4.46457,2.53937 -8.37875,6.19134 -11.2902,10.852 -9.36142,14.9894 -4.8,34.7327 10.1894,44.0941l16.9524 -27.1418 -16.8756 27.1252 89.7851 56.0776 -147.002 294.004z"/>
  <path class="fil1" d="M419.976 578.992c-10.5012,20.4248 -18.1689,46.2485 -26.7555,68.2725 210.26,149.947 420.518,299.897 630.779,449.843 209.668,-149.529 419.335,-299.061 629.006,-448.588 -8.13898,-20.876 -17.2713,-52.6996 -25.5874,-70.8875 -1.5626,-3.41575 -3.82559,-6.28819 -6.54213,-8.52638l-183.213 -176.12 0.0389764 -0.0519685c-7.34646,-7.06182 -18.0236,-8.51575 -26.7425,-4.46929 -75.8552,28.8083 -145.922,68.4343 -212.467,116.003 -54.841,39.2032 -115.051,92.8276 -166.312,141.142l7.81182 366.624c-4.18111,5.36221 -9.77245,11.739 -15.991,11.7626 -6.08977,0.0236221 -11.7165,-6.05079 -16.0075,-11.3079l14.0622 -367.252c-114.494,-109.01 -228.897,-208.38 -377.59,-270.624l0.0165354 -0.0401575c-9.40394,-3.93544 -19.8921,-1.43268 -26.563,5.49449l-192.408 190.272 -0.0011811 -0.0011811c-2.50394,2.47677 -4.35,5.36575 -5.53347,8.45434z"/>
 </g>
 <rect class="fil2" width="2048" height="2048"/>
</svg>
